<?xml version="1.0" encoding="UTF-8" standalone="no"?>
<!DOCTYPE svg PUBLIC "-//W3C//DTD SVG 1.1//EN" "http://www.w3.org/Graphics/SVG/1.1/DTD/svg11.dtd">
<svg width="100%" height="100%" viewBox="0 0 16 32" version="1.1" xmlns="http://www.w3.org/2000/svg" xmlns:xlink="http://www.w3.org/1999/xlink" xml:space="preserve" style="fill-rule:evenodd;clip-rule:evenodd;stroke-linejoin:round;stroke-miterlimit:1.41421;">
    <path d="M7,3.582C7,2.157 5.843,1 4.418,1L3.582,1C2.157,1 1,2.157 1,3.582L1,4.418C1,5.843 2.157,7 3.582,7L4.418,7C5.843,7 7,5.843 7,4.418L7,3.582Z" style="fill:rgb(202,202,202);"/>
    <g transform="matrix(1,0,0,1,8,0)">
        <path d="M7,3.582C7,2.157 5.843,1 4.418,1L3.582,1C2.157,1 1,2.157 1,3.582L1,4.418C1,5.843 2.157,7 3.582,7L4.418,7C5.843,7 7,5.843 7,4.418L7,3.582Z" style="fill:rgb(202,202,202);"/>
    </g>
    <g transform="matrix(1,0,0,1,0,8)">
        <path d="M7,3.582C7,2.157 5.843,1 4.418,1L3.582,1C2.157,1 1,2.157 1,3.582L1,4.418C1,5.843 2.157,7 3.582,7L4.418,7C5.843,7 7,5.843 7,4.418L7,3.582Z" style="fill:rgb(202,202,202);"/>
    </g>
    <g transform="matrix(1,0,0,1,8,8)">
        <path d="M7,3.582C7,2.157 5.843,1 4.418,1L3.582,1C2.157,1 1,2.157 1,3.582L1,4.418C1,5.843 2.157,7 3.582,7L4.418,7C5.843,7 7,5.843 7,4.418L7,3.582Z" style="fill:rgb(202,202,202);"/>
    </g>
    <g transform="matrix(1,0,0,1,0,16)">
        <path d="M7,3.582C7,2.157 5.843,1 4.418,1L3.582,1C2.157,1 1,2.157 1,3.582L1,4.418C1,5.843 2.157,7 3.582,7L4.418,7C5.843,7 7,5.843 7,4.418L7,3.582Z" style="fill:rgb(202,202,202);"/>
    </g>
    <g transform="matrix(1,0,0,1,8,16)">
        <path d="M7,3.582C7,2.157 5.843,1 4.418,1L3.582,1C2.157,1 1,2.157 1,3.582L1,4.418C1,5.843 2.157,7 3.582,7L4.418,7C5.843,7 7,5.843 7,4.418L7,3.582Z" style="fill:rgb(202,202,202);"/>
    </g>
    <g transform="matrix(1,0,0,1,0,24)">
        <path d="M7,3.582C7,2.157 5.843,1 4.418,1L3.582,1C2.157,1 1,2.157 1,3.582L1,4.418C1,5.843 2.157,7 3.582,7L4.418,7C5.843,7 7,5.843 7,4.418L7,3.582Z" style="fill:rgb(202,202,202);"/>
    </g>
    <g transform="matrix(1,0,0,1,8,24)">
        <path d="M7,3.582C7,2.157 5.843,1 4.418,1L3.582,1C2.157,1 1,2.157 1,3.582L1,4.418C1,5.843 2.157,7 3.582,7L4.418,7C5.843,7 7,5.843 7,4.418L7,3.582Z" style="fill:rgb(202,202,202);"/>
    </g>
</svg>
