<?xml version="1.0" encoding="UTF-8" standalone="no"?>
<!DOCTYPE svg PUBLIC "-//W3C//DTD SVG 1.1//EN" "http://www.w3.org/Graphics/SVG/1.1/DTD/svg11.dtd">
<svg width="100%" height="100%" viewBox="0 0 12 12" version="1.1" xmlns="http://www.w3.org/2000/svg" xmlns:xlink="http://www.w3.org/1999/xlink" xml:space="preserve" xmlns:serif="http://www.serif.com/" style="fill-rule:evenodd;clip-rule:evenodd;stroke-linejoin:round;stroke-miterlimit:1.41421;">
    <g transform="matrix(1,0,0,1,-0.334231,-0.0133654)">
        <path d="M10.815,8.225L3.837,8.225L4.187,7.512L10.009,7.501C10.206,7.501 10.375,7.361 10.41,7.166L11.216,2.653C11.237,2.535 11.205,2.413 11.128,2.32C11.051,2.228 10.937,2.175 10.816,2.174L3.41,2.149L3.347,1.852C3.307,1.662 3.136,1.523 2.941,1.523L1.131,1.523C0.904,1.523 0.717,1.71 0.717,1.937C0.717,2.164 0.904,2.351 1.131,2.351L2.606,2.351L2.883,3.666L3.564,6.962L2.687,8.393C2.594,8.518 2.581,8.686 2.652,8.824C2.722,8.964 2.864,9.052 3.021,9.052L3.757,9.052C3.6,9.26 3.515,9.514 3.516,9.775C3.516,10.438 4.055,10.977 4.718,10.977C5.381,10.977 5.92,10.438 5.92,9.775C5.92,9.513 5.834,9.259 5.679,9.052L7.567,9.052C7.41,9.26 7.325,9.514 7.325,9.775C7.325,10.438 7.864,10.977 8.528,10.977C9.191,10.977 9.73,10.438 9.73,9.775C9.73,9.513 9.643,9.259 9.489,9.052L10.816,9.052C11.044,9.052 11.23,8.866 11.23,8.638C11.229,8.411 11.042,8.226 10.815,8.225ZM3.582,2.965L10.33,2.987L9.669,6.688L4.369,6.697L3.582,2.965ZM4.718,10.145C4.514,10.145 4.348,9.979 4.348,9.775C4.348,9.571 4.514,9.404 4.718,9.404C4.922,9.404 5.088,9.571 5.088,9.775C5.088,9.978 4.921,10.145 4.718,10.145ZM8.528,10.145C8.324,10.145 8.157,9.979 8.157,9.775C8.157,9.571 8.324,9.404 8.528,9.404C8.732,9.404 8.898,9.571 8.898,9.775C8.898,9.978 8.731,10.145 8.528,10.145Z" style="fill:none;stroke:rgb(24,144,255);stroke-width:0.1px;"/>
    </g>
    <g transform="matrix(1,0,0,1,-0.227569,0.484222)">
        <g transform="matrix(1,0,0,1,0.128786,-0.034976)">
            <g>
                <g transform="matrix(1.24349,0,0,1.24349,-0.629504,-1.08407)">
                    <circle cx="5.438" cy="4.034" r="0.198" style="fill:none;stroke:rgb(24,144,255);stroke-width:0.08px;stroke-linecap:round;stroke-miterlimit:1.5;"/>
                </g>
                <g transform="matrix(1.24349,0,0,1.24349,0.739343,-1.08407)">
                    <circle cx="5.438" cy="4.034" r="0.198" style="fill:none;stroke:rgb(24,144,255);stroke-width:0.08px;stroke-linecap:round;stroke-miterlimit:1.5;"/>
                </g>
            </g>
        </g>
        <g transform="matrix(1,0,0,1,0.118197,-0.125048)">
            <path d="M5.857,5.126L7.798,5.126" style="fill:none;stroke:rgb(24,144,255);stroke-width:0.1px;stroke-linecap:round;stroke-miterlimit:1.5;"/>
        </g>
    </g>
</svg>
