<?xml version="1.0" encoding="UTF-8" standalone="no"?>
<!DOCTYPE svg PUBLIC "-//W3C//DTD SVG 1.1//EN" "http://www.w3.org/Graphics/SVG/1.1/DTD/svg11.dtd">
<svg width="100%" height="100%" viewBox="0 0 575 125" version="1.1" xmlns="http://www.w3.org/2000/svg" xmlns:xlink="http://www.w3.org/1999/xlink" xml:space="preserve" xmlns:serif="http://www.serif.com/" style="fill-rule:evenodd;clip-rule:evenodd;stroke-linejoin:round;stroke-miterlimit:2;">
    <g transform="matrix(1.03932,0,0,1.113,-11.8497,-7.74765)">
        <g>
            <path d="M17.531,42.516C14.494,48.911 12.784,56.059 12.776,63.61C12.752,86.688 28.58,106.08 49.981,111.491C50.163,98.228 52.574,85.692 56.735,74.515C40.856,66.494 27.417,55.517 17.531,42.516Z" style="fill:rgb(207,219,173);fill-rule:nonzero;"/>
            <path d="M49.98,111.49C50.162,98.227 52.573,85.691 56.734,74.514C40.855,66.493 27.416,55.516 17.53,42.515" style="fill:rgb(207,219,173);fill-rule:nonzero;"/>
            <path d="M180.516,108.994C197.927,101.39 210.11,84.036 210.131,63.82C210.134,60.957 209.881,58.156 209.415,55.425C199.736,64.493 188.076,72.087 174.993,77.747C178.202,87.37 180.138,97.911 180.516,108.994Z" style="fill:rgb(207,219,173);fill-rule:nonzero;"/>
            <path d="M63.139,77.521C59.729,87.94 57.859,99.806 57.827,112.801C59.224,112.923 60.634,112.998 62.061,112.999L160.739,113.104C167.011,113.112 173.006,111.935 178.527,109.806C177.444,98.547 175.308,88.174 172.255,78.895C156.245,85.395 138.229,89.043 119.175,89.023C98.929,89.003 79.863,84.842 63.139,77.521Z" style="fill:rgb(207,219,173);fill-rule:nonzero;"/>
            <path d="M160.846,14.429L62.168,14.323C45.82,14.306 31.329,22.247 22.338,34.481C31.431,47.785 44.255,59.125 59.64,67.534C71.156,42.644 91.814,26.057 115.369,26.083C140.953,26.109 163.077,45.728 173.761,74.271C187.075,69.067 198.998,61.839 208.955,53.071C204.071,30.987 184.4,14.454 160.846,14.429Z" style="fill:rgb(207,219,173);fill-rule:nonzero;"/>
            <path d="M171.007,75.309C160.867,47.664 142.066,30.785 117.776,31.6C94.349,32.388 75.659,47.004 65.706,70.64C82.798,78.786 102.63,83.458 123.786,83.481C140.594,83.499 156.569,80.576 171.007,75.309Z" style="fill:rgb(207,219,173);fill-rule:nonzero;"/>
            <path d="M178.527,109.808C177.444,98.549 175.308,88.176 172.255,78.897C156.245,85.397 138.229,89.045 119.175,89.025C98.928,89.004 79.862,84.842 63.138,77.522C59.728,87.941 57.858,99.807 57.826,112.802" style="fill:rgb(207,219,173);fill-rule:nonzero;"/>
            <path d="M209.415,55.426C199.736,64.494 188.076,72.088 174.993,77.748C178.202,87.37 180.139,97.911 180.516,108.994" style="fill:rgb(207,219,173);fill-rule:nonzero;"/>
            <g id="TEXT_1_">
                <rect x="235.5" y="12.625" width="13.051" height="101.105" style="fill-rule:nonzero;"/>
                <path d="M271.353,13.975C277.953,12.625 287.404,11.874 296.404,11.874C310.354,11.874 319.356,14.425 325.656,20.125C330.756,24.625 333.606,31.525 333.606,39.326C333.606,52.676 325.206,61.527 314.556,65.128L314.556,65.577C322.356,68.277 327.005,75.477 329.406,85.978C332.706,100.079 335.106,109.829 337.206,113.73L323.706,113.73C322.056,110.878 319.807,102.179 316.955,89.578C313.954,75.629 308.556,70.378 296.704,69.927L284.404,69.927L284.404,113.731L271.353,113.731L271.353,13.975ZM284.404,60.026L297.755,60.026C311.705,60.026 320.556,52.378 320.556,40.827C320.556,27.775 311.106,22.075 297.305,21.924C291.005,21.924 286.504,22.525 284.404,23.125L284.404,60.026Z" style="fill-rule:nonzero;"/>
                <rect x="352.06" y="12.625" width="13.048" height="101.105" style="fill-rule:nonzero;"/>
                <path d="M387.912,13.975C395.862,12.774 405.311,11.874 415.662,11.874C434.415,11.874 447.765,16.225 456.615,24.474C465.615,32.726 470.866,44.426 470.866,60.777C470.866,77.278 465.766,90.779 456.314,100.08C446.864,109.531 431.263,114.631 411.611,114.631C402.311,114.631 394.511,114.182 387.912,113.431L387.912,13.975ZM400.962,103.379C404.263,103.981 409.062,104.13 414.164,104.13C442.064,104.13 457.216,88.528 457.216,61.227C457.365,37.376 443.864,22.225 416.264,22.225C409.512,22.225 404.412,22.826 400.962,23.576L400.962,103.379Z" style="fill-rule:nonzero;"/>
                <path d="M502.069,81.929L491.568,113.731L478.067,113.731L512.419,12.626L528.171,12.626L562.673,113.731L548.721,113.731L537.921,81.929L502.069,81.929ZM535.221,71.728L525.321,42.626C523.071,36.025 521.571,30.024 520.072,24.176L519.77,24.176C518.27,30.176 516.621,36.326 514.67,42.477L504.77,71.728L535.221,71.728Z" style="fill-rule:nonzero;"/>
            </g>
        </g>
    </g>
</svg>
