<?xml version="1.0" encoding="utf-8"?>
<!-- Generator: Adobe Illustrator 16.0.0, SVG Export Plug-In . SVG Version: 6.00 Build 0)  -->
<!DOCTYPE svg PUBLIC "-//W3C//DTD SVG 1.1//EN" "http://www.w3.org/Graphics/SVG/1.1/DTD/svg11.dtd">
<svg version="1.1" id="Layer_1" xmlns="http://www.w3.org/2000/svg" xmlns:xlink="http://www.w3.org/1999/xlink" x="0px" y="0px"
	 width="575px" height="125px" viewBox="0 0 575 125" enable-background="new 0 0 575 125" xml:space="preserve">
<g>
	<path id="WHITE_BACKGROUND_1_" fill="#FFFFFF" d="M212.689,63.714c-0.001,28.366-22.664,51.366-50.621,51.366H60.838
		c-27.958,0-50.62-23-50.621-51.366l0,0C10.216,35.348,32.88,12.349,60.838,12.349h101.231
		C190.026,12.349,212.689,35.348,212.689,63.714L212.689,63.714z"/>
	<g id="GREEN_LOGO_1_">
		<g>
			<path fill="#CFDBAD" d="M17.531,42.516c-3.037,6.395-4.747,13.543-4.755,21.094c-0.024,23.078,15.804,42.47,37.205,47.881
				c0.182-13.263,2.593-25.799,6.754-36.976C40.856,66.494,27.417,55.517,17.531,42.516z"/>
			<path fill="none" stroke="#000000" stroke-width="2" stroke-miterlimit="10" d="M62.167,14.322"/>
			<path fill="#CFDBAD" stroke="#000000" stroke-miterlimit="10" d="M12.776,63.609"/>
			<path fill="#CFDBAD" stroke="#B9C39D" stroke-miterlimit="10" d="M49.98,111.49c0.182-13.263,2.593-25.799,6.754-36.976
				c-15.879-8.021-29.318-18.998-39.204-31.999"/>
			<path fill="#CFDBAD" d="M180.516,108.994c17.411-7.604,29.594-24.958,29.615-45.174c0.003-2.863-0.25-5.664-0.716-8.395
				c-9.679,9.068-21.339,16.662-34.422,22.322C178.202,87.37,180.138,97.911,180.516,108.994z"/>
			<path fill="#CFDBAD" d="M63.139,77.521c-3.41,10.419-5.28,22.285-5.312,35.28c1.397,0.122,2.807,0.197,4.234,0.198l98.678,0.105
				c6.272,0.008,12.267-1.169,17.788-3.298c-1.083-11.259-3.219-21.632-6.272-30.911c-16.01,6.5-34.026,10.148-53.08,10.128
				C98.929,89.003,79.863,84.842,63.139,77.521z"/>
			<path fill="#CFDBAD" d="M160.846,14.429l-98.678-0.106c-16.348-0.017-30.839,7.924-39.83,20.158
				c9.093,13.304,21.917,24.644,37.302,33.053c11.516-24.89,32.174-41.477,55.729-41.451c25.584,0.026,47.708,19.645,58.392,48.188
				c13.314-5.204,25.237-12.432,35.194-21.2C204.071,30.987,184.4,14.454,160.846,14.429z"/>
			<path fill="#CFDBAD" stroke="#B9C39D" stroke-miterlimit="10" d="M171.007,75.309c-10.14-27.645-28.941-44.524-53.231-43.709
				c-23.427,0.788-42.117,15.404-52.07,39.04c17.092,8.146,36.924,12.818,58.08,12.841
				C140.594,83.499,156.569,80.576,171.007,75.309z"/>
			<path fill="none" stroke="#B9C39D" stroke-miterlimit="10" d="M22.337,34.48c9.093,13.304,21.917,24.644,37.302,33.053
				c11.516-24.89,32.174-41.477,55.729-41.451c25.584,0.026,47.708,19.645,58.392,48.188c13.314-5.204,25.237-12.432,35.194-21.2"/>
			<path fill="#CFDBAD" stroke="#B9C39D" stroke-miterlimit="10" d="M178.527,109.808c-1.083-11.259-3.219-21.632-6.272-30.911
				c-16.01,6.5-34.026,10.148-53.08,10.128c-20.247-0.021-39.313-4.183-56.037-11.503c-3.41,10.419-5.28,22.285-5.312,35.28"/>
			<path fill="#CFDBAD" stroke="#000000" stroke-miterlimit="10" d="M160.74,113.105"/>
			<path fill="#CFDBAD" stroke="#B9C39D" stroke-miterlimit="10" d="M209.415,55.426c-9.679,9.068-21.339,16.662-34.422,22.322
				c3.209,9.622,5.146,20.163,5.523,31.246"/>
		</g>
	</g>
	<g id="TEXT_1_">
		<path fill="#FFFFFF" d="M248.551,12.625V113.73H235.5V12.625H248.551z"/>
		<path fill="#FFFFFF" d="M271.353,13.975c6.6-1.35,16.051-2.101,25.051-2.101c13.95,0,22.952,2.551,29.252,8.251
			c5.1,4.5,7.95,11.4,7.95,19.201c0,13.35-8.4,22.201-19.05,25.802v0.449c7.8,2.7,12.449,9.9,14.85,20.401
			c3.3,14.101,5.7,23.851,7.8,27.752h-13.5c-1.65-2.852-3.899-11.551-6.751-24.152c-3.001-13.949-8.399-19.2-20.251-19.651h-12.3
			v43.804h-13.051V13.975z M284.404,60.026h13.351c13.95,0,22.801-7.648,22.801-19.199c0-13.052-9.45-18.752-23.251-18.903
			c-6.3,0-10.801,0.601-12.901,1.201V60.026z"/>
		<path fill="#FFFFFF" d="M365.108,12.625V113.73H352.06V12.625H365.108z"/>
		<path fill="#FFFFFF" d="M387.912,13.975c7.95-1.201,17.399-2.101,27.75-2.101c18.753,0,32.103,4.351,40.953,12.6
			c9,8.252,14.251,19.952,14.251,36.303c0,16.501-5.1,30.002-14.552,39.303c-9.45,9.451-25.051,14.551-44.703,14.551
			c-9.3,0-17.1-0.449-23.699-1.2V13.975z M400.962,103.379c3.301,0.602,8.1,0.751,13.202,0.751c27.9,0,43.052-15.602,43.052-42.903
			c0.149-23.851-13.352-39.002-40.952-39.002c-6.752,0-11.852,0.601-15.302,1.351V103.379z"/>
		<path fill="#FFFFFF" d="M502.069,81.929l-10.501,31.802h-13.501l34.352-101.105h15.752l34.502,101.105h-13.952l-10.8-31.802
			H502.069z M535.221,71.728l-9.9-29.102c-2.25-6.601-3.75-12.602-5.249-18.45h-0.302c-1.5,6-3.149,12.15-5.1,18.301l-9.9,29.251
			H535.221z"/>
	</g>
</g>
</svg>
